<svg width="100" height="32" viewBox="0 0 100 32" fill="none" xmlns="http://www.w3.org/2000/svg">
<path d="M19.1184 16.5225L26.6468 8.98635L25.1609 7.49895C23.7741 6.1107 21.4462 6.1107 20.0594 7.49895L16.1961 11.3662L12.3823 7.49895C10.9955 6.1107 8.66763 6.1107 7.28081 7.49895L5.79492 8.98635L16.1466 19.3982L16.1961 19.4478L19.1184 16.5225Z" fill="#00387E"/>
<path d="M32.3923 14.7377L30.9064 13.2503C29.5196 11.862 27.1917 11.862 25.8049 13.2503L16.1961 22.9184L6.58742 13.2999C5.2006 11.9116 2.87271 11.9116 1.48588 13.2999L0 14.7873L16.1961 31L32.3923 14.7377Z" fill="#00387E"/>
<path d="M13.769 1.004C15.1063 -0.334666 17.2361 -0.334666 18.5734 1.004C19.9107 2.34266 19.9107 4.47461 18.5734 5.81327C17.2361 7.15194 15.1063 7.15194 13.769 5.81327C12.4813 4.47461 12.4813 2.29308 13.769 1.004Z" fill="#FFA100"/>
<path d="M46.2605 17.4646H42.2486L41.2085 19.7453H39.6731L44.3784 9.77966L48.8361 19.7453H47.3006L46.2605 17.4646ZM45.6662 16.1259L44.2793 12.9528L42.843 16.1259H45.6662Z" fill="#00387E"/>
<path d="M53.7891 12.4074C53.69 12.2091 53.591 12.0108 53.3433 11.8125C53.0461 11.5646 52.749 11.4654 52.3032 11.4654C51.4117 11.4654 50.9659 12.0108 50.9659 12.6057C50.9659 12.9032 51.065 13.399 52.006 13.7461L52.9471 14.1427C54.6806 14.8369 55.1759 15.8285 55.1759 16.9192C55.1759 18.7041 53.8881 19.9436 52.1546 19.9436C51.065 19.9436 50.4211 19.547 49.9258 19.0016C49.4305 18.4562 49.1828 17.8117 49.1333 17.1671L50.5697 16.8696C50.5697 17.3159 50.7182 17.7621 50.9659 18.0596C51.2135 18.4066 51.6098 18.6049 52.2041 18.6049C53.0957 18.6049 53.7395 17.9604 53.7395 17.0184C53.7395 16.0764 52.9966 15.6797 52.4022 15.3822L51.5107 14.9856C50.7182 14.6385 49.5791 13.994 49.5791 12.6057C49.5791 11.3167 50.5697 10.1267 52.3527 10.1267C53.3928 10.1267 53.9377 10.5234 54.2348 10.7713C54.4825 11.0192 54.7797 11.3167 54.9778 11.7133L53.7891 12.4074ZM61.7633 10.3251V19.7453H60.327V10.3251H61.7633ZM63.7445 13.7957H65.1313V14.3411C65.7257 13.6965 66.4191 13.6469 66.7658 13.6469C67.8554 13.6469 68.3507 14.1923 68.4993 14.4402C68.747 14.7873 68.846 15.1839 68.846 16.0764V19.7453H67.4592V16.4234C67.4592 14.8864 66.9144 14.8864 66.3696 14.8864C65.7257 14.8864 65.1313 14.9856 65.1313 16.8696V19.7453H63.7445V13.7957ZM73.2046 15.3822C73.056 15.1343 72.8084 14.8864 72.3626 14.8864C72.1645 14.8864 72.0159 14.936 71.9169 15.0352C71.8673 15.0848 71.7683 15.2335 71.7683 15.3327C71.7683 15.4814 71.8178 15.5806 71.9664 15.6797C72.0655 15.7293 72.115 15.7789 72.4122 15.9276L73.1056 16.2747C73.4028 16.4234 73.6999 16.5722 73.9476 16.8201C74.2943 17.1671 74.3933 17.5142 74.3933 17.9108C74.3933 18.4562 74.1952 18.9024 73.8485 19.2495C73.4028 19.7453 72.8084 19.894 72.1645 19.894C71.7683 19.894 71.3225 19.8445 70.8767 19.4974C70.53 19.2495 70.2329 18.8528 70.1338 18.4066L71.273 17.8612C71.3225 18.0596 71.4711 18.3075 71.6197 18.4066C71.7187 18.5058 71.9169 18.6545 72.214 18.6545C72.4122 18.6545 72.6598 18.6049 72.7589 18.4562C72.8579 18.357 72.957 18.1587 72.957 18.01C72.957 17.8612 72.9074 17.7125 72.7589 17.5638C72.6103 17.415 72.4122 17.3159 72.1645 17.2167L71.6692 16.9688C71.4216 16.8201 71.0749 16.6713 70.8272 16.473C70.53 16.1755 70.3815 15.8285 70.3815 15.4814C70.3815 14.9856 70.5796 14.5394 70.8767 14.1923C71.1244 13.8948 71.6197 13.6469 72.3131 13.6469C72.7589 13.6469 73.056 13.7461 73.4027 13.9444C73.6009 14.0932 73.8485 14.2915 74.0962 14.6881L73.2046 15.3822ZM75.6811 9.43262H77.0679V14.2915C77.6623 13.6965 78.3062 13.6469 78.6529 13.6469C79.7425 13.6469 80.2378 14.1923 80.3864 14.4402C80.7331 14.9856 80.7826 15.6797 80.7826 16.0764V19.7453H79.3958V16.2251C79.3958 15.878 79.3958 15.4814 79.1482 15.1839C78.9996 15.0352 78.7024 14.8864 78.3557 14.8864C77.9099 14.8864 77.5137 15.1343 77.3156 15.3822C77.1175 15.6797 77.0184 16.1259 77.0184 16.8696V19.7453H75.6316V9.43262H75.6811ZM86.9243 13.7957H88.3111V19.7453H86.9243V19.1008C86.3299 19.7949 85.587 19.894 85.1412 19.894C83.3086 19.894 82.2685 18.357 82.2685 16.7209C82.2685 14.7873 83.6058 13.5974 85.1412 13.5974C85.587 13.5974 86.3299 13.6965 86.9243 14.4402V13.7957ZM83.6553 16.7705C83.6553 17.8117 84.2992 18.6545 85.2898 18.6545C86.1814 18.6545 86.9738 18.01 86.9738 16.7705C86.9738 15.4814 86.1814 14.8369 85.2898 14.8369C84.2992 14.8864 83.6553 15.7293 83.6553 16.7705ZM94.4033 13.7957H95.7901V19.7453H94.4033V19.1008C93.8089 19.7949 93.066 19.894 92.6202 19.894C90.7876 19.894 89.7475 18.357 89.7475 16.7209C89.7475 14.7873 91.0848 13.5974 92.6202 13.5974C93.066 13.5974 93.8089 13.6965 94.4033 14.4402V13.7957ZM91.1343 16.7705C91.1343 17.8117 91.7782 18.6545 92.7688 18.6545C93.6603 18.6545 94.4528 18.01 94.4528 16.7705C94.4528 15.4814 93.6603 14.8369 92.7688 14.8369C91.7782 14.8864 91.1343 15.7293 91.1343 16.7705ZM98.96 15.0848V19.7453H97.5731V15.0848H96.9788V13.7957H97.5731V11.6141H98.96V13.7957H100V15.0848H98.96Z" fill="#00387E"/>
</svg>
