<?xml version="1.0" encoding="UTF-8" standalone="no"?>
<!-- Generator: Adobe Illustrator 23.0.1, SVG Export Plug-In . SVG Version: 6.00 Build 0)  -->

<svg
   version="1.1"
   id="Layer_1"
   x="0px"
   y="0px"
   viewBox="0 0 366.1548 140.21507"
   enable-background="new 0 0 366.2 250"
   xml:space="preserve"
   sodipodi:docname="Baku_Subway_logo.svg"
   inkscape:version="1.2.1 (9c6d41e410, 2022-07-14)"
   width="366.15482"
   height="140.21507"
   xmlns:inkscape="http://www.inkscape.org/namespaces/inkscape"
   xmlns:sodipodi="http://sodipodi.sourceforge.net/DTD/sodipodi-0.dtd"
   xmlns="http://www.w3.org/2000/svg"
   xmlns:svg="http://www.w3.org/2000/svg"><defs
   id="defs19">
	
	
	
	
	
	
</defs><sodipodi:namedview
   id="namedview17"
   pagecolor="#ffffff"
   bordercolor="#000000"
   borderopacity="0.25"
   inkscape:showpageshadow="2"
   inkscape:pageopacity="0.0"
   inkscape:pagecheckerboard="0"
   inkscape:deskcolor="#d1d1d1"
   showgrid="false"
   showguides="false"
   inkscape:zoom="1"
   inkscape:cx="-132.5"
   inkscape:cy="204.5"
   inkscape:window-width="1920"
   inkscape:window-height="1129"
   inkscape:window-x="-8"
   inkscape:window-y="-8"
   inkscape:window-maximized="1"
   inkscape:current-layer="Layer_1" />
<g
   id="g5145"><path
     fill="#e21e25"
     d="m 236.97861,0 c -5.5,0 -10.3,3.5537651 -13,8.8336446 l -41.5,81.2289164 21.8,42.645179 c 2.2,3.55377 5.4,6.09217 9,7.006 1,0.3046 2.1,0.40614 3.2,0.40614 h -0.2 c 0.2,0 0.3,0 0.3,0 5.5,0 10.3,-3.55376 13,-8.83364 l 62.8,-122.85874 c 2.2,-4.0614458 5.6,-6.9044578 9.6,-7.91981927 1,-0.20307229 2.1,-0.40614458 3.2,-0.40614458 h -68.2 z"
     id="path4"
     style="fill:#e11e25;fill-opacity:1;stroke-width:1.00765" /><path
     fill="#e21e25"
     d="m 148.61299,140.21507 c -5.5,0 -10.3,-3.55376 -13,-8.83364 L 94.112983,50.15251 115.91299,7.5073288 c 2.2,-3.553765 5.4,-6.0921687 9,-7.00599398 1,-0.30460844 2.1,-0.40614458 3.2,-0.40614458 h -0.2 c 0.2,0 0.3,0 0.3,0 5.5,0 10.3,3.55376506 13,8.83364456 l 62.8,122.8587352 c 2.2,4.06145 5.6,6.90446 9.6,7.91982 1,0.20307 2.1,0.40614 3.2,0.40614 h -68.2 z"
     id="path4-0"
     style="fill:#388ac0;fill-opacity:1;stroke-width:1.00765" /><path
     fill="#029f52"
     d="m 363.17861,96.154729 c 0,0 -44.3,-86.3057229 -44.7,-87.2195482 -2.7,-5.2798796 -7.5,-8.83364465 -13,-8.83364465 h -0.3 c -1.2,-0.10153615 -2.2,0.10153614 -3.2,0.30460843 -3.9,1.01536142 -7.4,3.95990962 -9.6,7.91981932 l -21.2,41.4267471 c 17,33.20232 37.8,73.816779 37.8,73.816779 7.7,15.02735 26,20.91644 40.8,12.99663 14.7,-7.61522 20.4,-25.58711 13.4,-40.411391"
     id="path8"
     style="fill:#039f52;fill-opacity:1;stroke-width:1.00765" /><path
     fill="#FAE806"
     d="M 121.27861,0 H 60.678608 c -5.5,0 -10.3,3.5537651 -13,8.8336446 -0.5,1.0153615 -44.7000005,87.3210844 -44.7000005,87.3210844 -7,14.925811 -1.3,32.897711 13.3000005,40.512921 14.8,7.81828 33.1,2.03072 40.8,-12.99663 l 34.3,-67.013851 v 0 c 0,0 24.800002,-48.4327412 25.200002,-49.1434943 2.2,-3.553765 5.4,-6.0921687 9,-7.10753012 1,-0.30460843 2.1,-0.40614458 3.2,-0.40614458 z"
     id="path10"
     style="fill:#f9e707;fill-opacity:1;stroke-width:1.00765" /></g>
</svg>
