<svg xmlns="http://www.w3.org/2000/svg" viewBox="0 0 284.2 73.15"><defs><style>.cls-1{fill:#005288;}.cls-2{fill:#00a4e4;}</style></defs><title>Asset 1</title><g id="Layer_2" data-name="Layer 2"><g id="Layer_2-2" data-name="Layer 2"><path class="cls-1" d="M0,1.16V18H46.35V1.16ZM0,71.67H46.2V54.82H18.33v-10H46.25V28.67H0Z"/><path class="cls-2" d="M249.51,1.16H284.2V18H267.84V28.64H284.1V44.8H267.84v10H284V71.67H249.51Z"/><path class="cls-2" d="M71.86,1.16V54.82H83V71.67H53.52V1.16Z"/><path class="cls-2" d="M242.15,1.16V71.67h-16l0-47.6-6.38,47.6H208.36l-6.73-46.51,0,46.51h-16V1.16h23.73q1,6.36,2.17,15l2.6,17.94L218.3,1.16Z"/><path class="cls-2" d="M130.27,32.05V25.38c0-6.56-.54-11.38-1.64-14.49a14.91,14.91,0,0,0-6.87-7.77Q116.54,0,108.49,0A25.58,25.58,0,0,0,98,2a17.17,17.17,0,0,0-7.13,5.52,15.89,15.89,0,0,0-3.09,7.31,90.66,90.66,0,0,0-.52,11.38V46.75c0,6.87.56,12,1.68,15.45a14.15,14.15,0,0,0,6.88,8q5.19,2.9,13.18,2.9A23.19,23.19,0,0,0,122,69.72c3.49-2.29,5.76-5,6.78-8s1.53-8.19,1.53-15.46V43.54H112l0-.06c0,1.51,0,8.57,0,8.57,0,2.25-1.49,4.1-3.25,4.1s-3.2-1.85-3.2-4.1V21c0-2.26,1.44-4.1,3.2-4.1S112,18.76,112,21v11Z"/><path class="cls-2" d="M179.33,25.38c0-6.56-.54-11.38-1.64-14.49a14.91,14.91,0,0,0-6.87-7.77Q165.59,0,157.55,0a25.58,25.58,0,0,0-10.48,2,17.17,17.17,0,0,0-7.13,5.52,15.89,15.89,0,0,0-3.09,7.31,90.66,90.66,0,0,0-.52,11.38V46.75c0,6.87.56,12,1.69,15.45a14.1,14.1,0,0,0,6.87,8q5.19,2.9,13.18,2.9A23.13,23.13,0,0,0,171,69.72q5.25-3.43,6.79-8t1.53-15.46ZM161.09,52.05c0,2.25-1.49,4.1-3.25,4.1s-3.2-1.85-3.2-4.1V21c0-2.26,1.44-4.1,3.2-4.1s3.25,1.84,3.25,4.1Z"/></g></g></svg>