<svg width="186" height="90" viewBox="0 0 186 90" fill="none" xmlns="http://www.w3.org/2000/svg">
<g clip-path="url(#clip0_12050_43679)">
<path d="M22.4261 0H0V19.5727H22.4261V0Z" fill="#F6E200"/>
<path d="M29.0591 19.5727H99.8922V0H29.0591V19.5727ZM29.0591 70.8375H99.8922V51.2648H51.4809V44.6317H99.8922V26.2101H29.0591V70.8375ZM185.257 0H159.157L128.951 35.4187L159.157 70.8375H185.257L155.051 35.4187L185.257 0ZM106.53 0V70.8375H128.956V0H106.53ZM0 70.8375H22.4261V26.2101H0V70.8375Z" fill="#1D252D"/>
<path d="M6.19577 86.9173C6.19577 86.1014 5.67536 85.6956 4.64336 85.6956H2.23537V88.1257H4.64336C5.67977 88.1257 6.19577 87.7243 6.19577 86.9173ZM5.70623 82.9965C5.70623 82.2468 5.25639 81.8675 4.36111 81.8675H2.23096V84.1344H4.36111C5.25639 84.1344 5.70623 83.7551 5.70623 82.9965ZM8.4891 87.1422C8.4891 88.1345 8.18039 88.8357 7.56736 89.2459C6.94993 89.656 5.94439 89.8633 4.54193 89.8633H0.0390625V80.1299H4.77567C6.92346 80.1299 7.99957 80.9899 7.99957 82.7011C7.99957 82.9877 7.95105 83.2568 7.85403 83.5081C7.757 83.7595 7.63351 83.9624 7.48357 84.1035C7.19249 84.3858 6.93228 84.571 6.69413 84.6592L6.53977 84.6989V84.8003C6.59711 84.8092 6.67208 84.8224 6.75587 84.84C6.8529 84.8621 7.00726 84.9282 7.22336 85.0297C7.4571 85.1532 7.65557 85.2855 7.81433 85.431C7.99957 85.5986 8.15833 85.8368 8.29064 86.1411C8.42295 86.4454 8.4891 86.7761 8.4891 87.1334" fill="#1D252D"/>
<path d="M16.085 80.1299H18.6958L14.7442 84.9547L18.9119 89.8633H16.3011L12.2569 85.065V89.8633H10.0605V80.1299H12.2569V84.8356L16.085 80.1299Z" fill="#1D252D"/>
<path d="M19.6162 89.9162L19.4883 89.8765V87.8214C19.6382 87.8478 19.797 87.8611 19.9646 87.8611C20.3439 87.8611 20.6173 87.7332 20.7849 87.4729C20.9481 87.2304 21.0672 86.8202 21.1465 86.2513L21.9139 80.1299H29.2393V89.8633H27.0386V82.0483H23.9426L23.3473 86.6659C23.1929 87.839 22.915 88.6858 22.5137 89.2106C22.1124 89.7354 21.4508 90 20.5379 90C20.1542 90 19.8455 89.9736 19.6206 89.9162" fill="#1D252D"/>
<path d="M36.8956 84.9988C36.8956 85.8941 37.0809 86.6306 37.4513 87.2127C37.8262 87.7949 38.4172 88.0904 39.2242 88.0904C40.0313 88.0904 40.6179 87.7993 40.9883 87.2127C41.3544 86.6306 41.5396 85.8897 41.5396 84.9988C41.5396 84.1079 41.35 83.3582 40.9707 82.7804C40.5914 82.2071 40.0049 81.916 39.2198 81.916C38.4348 81.916 37.8482 82.2027 37.469 82.7804C37.0897 83.3582 36.9 84.0991 36.9 84.9988M33.4336 80.1299V83.9977H34.6905C34.6905 83.9977 34.6905 83.9447 34.7037 83.8962C34.7126 83.8477 34.7214 83.8036 34.7258 83.7683C34.739 83.6625 34.7875 83.4773 34.8757 83.2038C35.0477 82.6173 35.3256 82.0704 35.7093 81.5764C35.9518 81.2589 36.2297 80.9899 36.5384 80.7738C36.8471 80.5577 37.222 80.3724 37.6718 80.2225C38.1349 80.0681 38.6509 79.9932 39.2198 79.9932C40.6576 79.9932 41.791 80.4607 42.6157 81.4C43.4316 82.335 43.8374 83.539 43.8374 85.012C43.8374 86.485 43.4316 87.6846 42.6157 88.6108C41.7998 89.5369 40.6708 90 39.2198 90C38.6509 90 38.1217 89.925 37.6365 89.7751C37.1514 89.6251 36.7545 89.4223 36.4414 89.1709C36.1327 88.9283 35.8636 88.6593 35.6343 88.3638C35.4755 88.1654 35.3388 87.9537 35.2197 87.7332C35.1007 87.5126 35.008 87.2789 34.9331 87.0363C34.8581 86.7938 34.8096 86.6218 34.7875 86.5292C34.7655 86.4365 34.7346 86.2866 34.6949 86.0837L34.6684 85.8456H33.438V89.8633H31.2461V80.1299H33.438H33.4336Z" fill="#1D252D"/>
<path d="M45.1777 83.2303V80.1299H47.3784V83.2303C47.3784 83.8654 47.5504 84.3196 47.8944 84.6019C48.2384 84.8842 48.7721 85.0209 49.491 85.0209H51.2154V80.1255H53.4161V89.8589H51.2154V86.9393H49.491C47.9827 86.9393 46.8889 86.635 46.2053 86.0308C45.5217 85.4266 45.1821 84.4961 45.1821 83.2259" fill="#1D252D"/>
<path d="M58.1758 86.4013H61.4261L59.8737 82.2997H59.7326L58.1758 86.4013ZM58.4007 80.1299H61.2188L65.144 89.8633H62.8374L62.1538 88.1786H57.4569L56.7909 89.8633H54.4844L58.4095 80.1299H58.4007Z" fill="#1D252D"/>
<path d="M74.1769 89.8633H66.2031V80.1299H74.1769V81.9822H68.395V83.9844H73.2772V85.7662H68.395V88.0198H74.1769V89.8633Z" fill="#1D252D"/>
<path d="M81.2095 84.6372L81.3241 85.8059H81.4873L81.602 84.6372L83.4234 80.1299H86.9384V89.8633H84.7377V83.4023L84.989 82.1586H84.7597L84.4201 83.4023L82.6428 87.5303H80.173L78.3913 83.4023L78.0517 82.1586H77.8224L78.0694 83.4023V89.8633H75.873V80.1299H79.3924L81.2095 84.6372Z" fill="#1D252D"/>
<path d="M89.9077 88.6505C88.9992 87.7552 88.5449 86.538 88.5449 84.9988C88.5449 83.4596 88.9992 82.2468 89.9077 81.3427C90.8118 80.4474 92.0378 79.9976 93.5858 79.9976C95.1338 79.9976 96.2629 80.3768 97.1714 81.1398C98.0711 81.8984 98.5209 82.8554 98.5209 84.0021H96.1702C96.1702 83.9491 96.1526 83.8742 96.1306 83.7771C96.1085 83.6757 96.0423 83.5125 95.9409 83.2832C95.8218 83.045 95.6851 82.8333 95.5219 82.6569C95.3543 82.4761 95.103 82.3129 94.7678 82.163C94.4238 82.0175 94.0313 81.9469 93.5858 81.9469C92.7126 81.9469 92.0378 82.2336 91.5571 82.8113C91.0764 83.3846 90.8383 84.1167 90.8383 85.0032C90.8383 85.8897 91.0808 86.6218 91.5659 87.2039C92.0467 87.7772 92.7214 88.0639 93.5903 88.0639C94.0136 88.0639 94.4017 87.9978 94.7457 87.861C95.0897 87.7243 95.3543 87.5523 95.5352 87.3406C95.8968 86.9172 96.0997 86.538 96.1394 86.2116L96.1791 86.0087H98.5297C98.5297 87.1642 98.0799 88.1168 97.1802 88.8666C96.2761 89.6251 95.0809 90.0088 93.5947 90.0088C92.1084 90.0088 90.8162 89.559 89.9165 88.6593" fill="#1D252D"/>
<path d="M102.101 83.442C102.101 83.9139 102.224 84.2711 102.476 84.5225C102.727 84.7739 103.084 84.8973 103.548 84.8973H105.66V81.9778H103.592C103.133 81.9778 102.771 82.1057 102.507 82.3659C102.238 82.6261 102.105 82.9833 102.105 83.4376M107.856 89.8633H105.656V86.7497H103.693L101.929 89.8633H99.5254L101.554 86.3351C101.554 86.3351 101.47 86.3263 101.356 86.2689C101.241 86.2116 101.091 86.1058 100.906 85.9602C100.721 85.8147 100.553 85.6427 100.403 85.4486C100.231 85.2325 100.085 84.937 99.9708 84.571C99.8562 84.2005 99.7988 83.808 99.7988 83.3935C99.7988 82.3394 100.116 81.5323 100.756 80.9722C101.395 80.4121 102.335 80.1343 103.578 80.1343H107.848V89.8677L107.856 89.8633Z" fill="#1D252D"/>
<path d="M119.328 86.9173C119.328 86.1014 118.812 85.6956 117.776 85.6956H115.368V88.1257H117.776C118.812 88.1257 119.328 87.7243 119.328 86.9173ZM118.839 82.9965C118.839 82.2468 118.389 81.8675 117.493 81.8675H115.363V84.1344H117.493C118.389 84.1344 118.839 83.7551 118.839 82.9965ZM121.621 87.1422C121.621 88.1345 121.313 88.8357 120.7 89.2459C120.082 89.656 119.077 89.8633 117.674 89.8633H113.176V80.1299H117.912C120.06 80.1299 121.136 80.9899 121.136 82.7011C121.136 82.9877 121.088 83.2568 120.991 83.5081C120.894 83.7595 120.77 83.9624 120.62 84.1035C120.329 84.3858 120.069 84.571 119.831 84.6592L119.676 84.6989V84.8003C119.734 84.8092 119.809 84.8224 119.893 84.84C119.985 84.8621 120.144 84.9282 120.36 85.0297C120.594 85.1532 120.792 85.2855 120.951 85.431C121.136 85.5986 121.295 85.8368 121.427 86.1411C121.56 86.4454 121.626 86.7761 121.626 87.1334" fill="#1D252D"/>
<path d="M125.477 89.8633L129.327 84.9547L125.701 80.1299H128.317L131.735 84.8356V80.1299H133.927V84.8356L137.349 80.1299H139.964L136.33 84.9547L140.185 89.8633H137.574L133.927 85.065V89.8633H131.735V85.065L128.092 89.8633H125.477Z" fill="#1D252D"/>
<path d="M148.503 82.2336L148.057 83.4684L144.26 89.8633H141.248V80.1299H143.44V86.6659L143.136 87.9007H143.343L143.793 86.6659L147.586 80.1299H150.602V89.8633H148.41V83.4684L148.715 82.2336H148.503Z" fill="#1D252D"/>
<path d="M152.172 86.9702V86.4939H154.465V86.9702C154.465 87.3053 154.633 87.592 154.968 87.8346C155.303 88.0727 155.793 88.1962 156.441 88.1962C157.089 88.1962 157.566 88.086 157.901 87.861C158.236 87.6361 158.404 87.3362 158.404 86.9613C158.404 86.5865 158.254 86.2689 157.954 86.0528C157.654 85.8367 157.208 85.7265 156.609 85.7265H155.427V84.0859H156.534C157.579 84.0859 158.104 83.7066 158.108 82.9436C158.108 82.6261 157.976 82.357 157.716 82.1365C157.451 81.916 157.001 81.8013 156.357 81.8013C155.815 81.8013 155.383 81.9116 155.061 82.1365C154.739 82.357 154.58 82.6658 154.58 83.0539V83.2788H152.287V83.0406C152.287 82.1101 152.631 81.3647 153.319 80.8135C154.002 80.271 155.016 79.9976 156.362 79.9976C157.707 79.9976 158.668 80.2401 159.369 80.7252C160.062 81.2148 160.406 81.8499 160.406 82.6393C160.406 82.9657 160.353 83.2611 160.251 83.5258C160.15 83.7904 160.013 83.9977 159.846 84.1476C159.511 84.4475 159.224 84.6283 158.986 84.6989L158.818 84.7386V84.8532C158.867 84.8577 158.937 84.8709 159.03 84.8929C159.127 84.915 159.281 84.9723 159.484 85.0693C159.691 85.1664 159.885 85.2899 160.062 85.4486C160.243 85.6118 160.397 85.8456 160.525 86.1499C160.653 86.4542 160.715 86.7938 160.715 87.1598C160.715 88.086 160.335 88.796 159.581 89.2767C158.827 89.7619 157.782 90.0044 156.445 90.0044C155.039 90.0044 153.976 89.7398 153.257 89.215C152.538 88.6902 152.176 87.9448 152.176 86.9746" fill="#1D252D"/>
<path d="M171.404 89.8633H169.212V85.7485H164.506V89.8633H162.314V80.1299H164.506V83.8301H169.212V80.1299H171.404V89.8633Z" fill="#1D252D"/>
<path d="M178.879 87.6494C179.179 87.4156 179.329 87.0319 179.329 86.5071C179.329 85.9823 179.179 85.6074 178.874 85.3604C178.57 85.1179 178.107 84.9944 177.481 84.9944H175.602V88.0154H177.481C178.107 88.0154 178.57 87.8919 178.879 87.6494ZM173.41 80.1299H175.602V83.1509H177.481C178.892 83.1509 179.937 83.4288 180.612 83.9889C181.287 84.549 181.622 85.3869 181.622 86.5115C181.622 87.6361 181.282 88.4741 180.612 89.0298C179.937 89.5855 178.897 89.8633 177.481 89.8633H173.41V80.1299Z" fill="#1D252D"/>
<path d="M184.931 88.0772C185.147 88.2712 185.257 88.5402 185.257 88.8842C185.257 89.2282 185.147 89.4973 184.931 89.7001C184.711 89.8986 184.424 90 184.076 90C183.727 90 183.44 89.8986 183.22 89.7001C183.004 89.5017 182.894 89.2282 182.894 88.8842C182.894 88.5402 183.004 88.2712 183.22 88.0772C183.44 87.8787 183.727 87.7773 184.076 87.7773C184.424 87.7773 184.711 87.8787 184.931 88.0772ZM183.229 86.7364L182.885 82.0792V80.1299H185.218V82.0792L184.927 86.7364H183.229Z" fill="#1D252D"/>
</g>
<defs>
<clipPath id="clip0_12050_43679">
<rect width="185.257" height="90" fill="white"/>
</clipPath>
</defs>
</svg>
