<?xml version="1.0" encoding="utf-8"?>
<!-- Generator: Adobe Illustrator 27.0.1, SVG Export Plug-In . SVG Version: 6.00 Build 0)  -->
<svg version="1.1" id="katman_1" xmlns="http://www.w3.org/2000/svg" xmlns:xlink="http://www.w3.org/1999/xlink" x="0px" y="0px"
	 viewBox="0 0 323.53 96.57" style="enable-background:new 0 0 323.53 96.57;" xml:space="preserve">
<style type="text/css">
	.st0{fill:#00699F;}
	.st1{fill-rule:evenodd;clip-rule:evenodd;fill:#00699F;}
	.st2{fill:#9D9D9C;}
	.st3{fill-rule:evenodd;clip-rule:evenodd;fill:#9D9D9C;}
</style>
<path class="st0" d="M1.4,8.26h52.85l0.5,15.89h-2.24c-1.1-4.99-2.5-8.23-4.2-9.73c-1.67-1.52-5.22-2.28-10.64-2.28h-5.21v47.87
	c0,3.63,0.56,5.88,1.69,6.76c1.13,0.85,3.59,1.42,7.4,1.69v1.69H14.28v-1.69c3.96-0.3,6.43-0.96,7.4-1.97
	c0.97-1.01,1.46-3.53,1.46-7.58V12.15h-5.21c-5.18,0-8.71,0.75-10.6,2.24c-1.86,1.49-3.26,4.75-4.2,9.77H0.85L1.4,8.26"/>
<path class="st0" d="M62.98,68.47c3.44-0.37,5.66-0.97,6.67-1.83c1.03-0.88,1.55-3.09,1.55-6.63V18.4c0-3.32-0.5-5.48-1.51-6.48
	c-1.01-1.03-3.24-1.67-6.72-1.92V8.26h49.69L113,21.69h-2.38c-0.79-4.14-1.98-6.82-3.56-8.04c-1.58-1.22-5.12-1.83-10.6-1.83h-12.7
	c-1.37,0-2.23,0.23-2.56,0.68c-0.3,0.43-0.46,1.25-0.46,2.47v20.87h14.39c3.99,0,6.53-0.6,7.63-1.78c1.1-1.19,1.98-3.59,2.65-7.22
	h2.19v21.65h-2.19c-0.7-3.62-1.6-6.01-2.69-7.17c-1.1-1.19-3.62-1.78-7.58-1.78H80.75v23.16c0,1.86,0.58,2.95,1.74,3.29
	c1.18,0.34,4.7,0.5,10.55,0.5c6.33,0,11.01-0.68,14.02-2.05c3.01-1.4,5.72-4.77,8.13-10.1h2.6l-4.25,15.8H62.98V68.47"/>
<path class="st0" d="M126.12,8.26h52.85l0.5,15.89h-2.24c-1.1-4.99-2.5-8.23-4.2-9.73c-1.67-1.52-5.22-2.28-10.64-2.28h-5.21v47.87
	c0,3.63,0.56,5.88,1.69,6.76c1.13,0.85,3.59,1.42,7.4,1.69v1.69h-27.27v-1.69c3.96-0.3,6.42-0.96,7.4-1.97
	c0.97-1.01,1.46-3.53,1.46-7.58V12.15h-5.21c-5.18,0-8.71,0.75-10.6,2.24c-1.86,1.49-3.26,4.75-4.2,9.77h-2.28L126.12,8.26"/>
<path class="st1" d="M187.71,68.47c3.59-0.33,5.83-1.04,6.71-2.1c0.88-1.06,1.32-3.54,1.33-7.44V18.4c0-3.29-0.5-5.44-1.51-6.44
	c-0.97-1.04-3.15-1.69-6.53-1.97V8.26h25.9c5.39,0,9.88,0.68,13.48,2.05c6.82,2.59,10.23,7.35,10.23,14.3
	c0,4.66-1.52,8.24-4.57,10.73c-3.02,2.5-7.13,4.14-12.33,4.93l19.28,23.71c1.19,1.46,2.37,2.52,3.56,3.2
	c1.19,0.67,2.71,1.09,4.57,1.28v1.69h-15.07l-22.29-28.77l-5.21,0.23v18.41c0,3.47,0.52,5.68,1.55,6.63
	c1.07,0.91,3.37,1.52,6.9,1.83v1.69h-25.99V68.47 M219.69,36.04c4.96-2.04,7.44-5.88,7.44-11.51c0-5.42-2.22-9.12-6.67-11.1
	c-2.37-1.06-5.53-1.6-9.45-1.6c-2.65,0-4.28,0.2-4.89,0.59c-0.58,0.36-0.87,1.25-0.87,2.65v23.07
	C211.98,37.89,216.79,37.19,219.69,36.04z"/>
<path class="st2" d="M0,90.93c0.88-0.09,1.45-0.25,1.71-0.47c0.27-0.23,0.4-0.79,0.4-1.7V78.08c0-0.85-0.13-1.41-0.39-1.67
	C1.47,76.15,0.89,75.99,0,75.92v-0.45h12.76l0.08,3.45h-0.61c-0.2-1.06-0.51-1.75-0.91-2.06c-0.41-0.31-1.31-0.47-2.72-0.47H5.33
	c-0.35,0-0.57,0.06-0.66,0.17c-0.08,0.11-0.12,0.32-0.12,0.63v5.36h3.69c1.02,0,1.68-0.15,1.96-0.46c0.28-0.3,0.51-0.92,0.68-1.85
	h0.56v5.56h-0.56c-0.18-0.93-0.41-1.54-0.69-1.84c-0.28-0.3-0.93-0.46-1.95-0.46H4.56v5.95c0,0.48,0.15,0.76,0.45,0.85
	c0.3,0.08,1.21,0.13,2.71,0.13c1.63,0,2.83-0.18,3.6-0.53c0.78-0.36,1.47-1.22,2.09-2.59h0.67l-1.09,4.06H0V90.93"/>
<path class="st2" d="M16.01,90.93c0.88-0.09,1.46-0.25,1.71-0.47c0.27-0.23,0.4-0.79,0.4-1.7V78.08c0-0.85-0.13-1.41-0.39-1.67
	c-0.26-0.27-0.83-0.43-1.72-0.49v-0.45h6.79v0.45c-0.88,0.05-1.48,0.19-1.78,0.44c-0.3,0.24-0.45,0.76-0.45,1.56v11.54
	c0,0.27,0.04,0.48,0.13,0.63c0.09,0.15,0.29,0.24,0.6,0.28c0.18,0.02,0.37,0.04,0.56,0.05c0.2,0.01,0.58,0.01,1.13,0.01
	c2.13,0,3.58-0.18,4.33-0.53c0.75-0.35,1.48-1.25,2.18-2.7h0.61l-1.17,4.16H16.01V90.93"/>
<path class="st2" d="M32.02,90.93c0.88-0.09,1.46-0.25,1.71-0.47c0.27-0.23,0.4-0.79,0.4-1.7V78.08c0-0.85-0.13-1.41-0.39-1.67
	c-0.26-0.27-0.83-0.43-1.72-0.49v-0.45h12.76l0.08,3.45h-0.61c-0.2-1.06-0.51-1.75-0.92-2.06c-0.41-0.31-1.31-0.47-2.72-0.47h-3.26
	c-0.35,0-0.57,0.06-0.66,0.17c-0.08,0.11-0.12,0.32-0.12,0.63v5.36h3.7c1.02,0,1.68-0.15,1.96-0.46c0.28-0.3,0.51-0.92,0.68-1.85
	h0.56v5.56h-0.56c-0.18-0.93-0.41-1.54-0.69-1.84c-0.28-0.3-0.93-0.46-1.95-0.46h-3.7v5.95c0,0.48,0.15,0.76,0.45,0.85
	c0.3,0.08,1.21,0.13,2.71,0.13c1.63,0,2.83-0.18,3.6-0.53c0.78-0.36,1.47-1.22,2.09-2.59h0.67l-1.09,4.06H32.02V90.93"/>
<path class="st2" d="M48.2,90.93c0.98-0.08,1.58-0.25,1.82-0.51c0.23-0.27,0.35-0.92,0.35-1.94v-10.4c0-0.87-0.13-1.43-0.4-1.68
	c-0.26-0.26-0.85-0.42-1.77-0.48v-0.45h6.85v0.45c-0.94,0.05-1.54,0.21-1.82,0.47c-0.27,0.27-0.41,0.83-0.41,1.69v4.92
	c1.48-1.26,2.68-2.33,3.62-3.21c1.68-1.6,2.52-2.63,2.52-3.08c0-0.32-0.15-0.53-0.43-0.63c-0.28-0.1-0.69-0.15-1.21-0.15v-0.45h6.29
	v0.39c-0.77,0.08-1.37,0.23-1.82,0.46c-0.44,0.23-1.05,0.72-1.83,1.49l-4.56,4.47l5.59,6.04c1.04,1.12,1.75,1.82,2.12,2.1
	c0.38,0.27,0.93,0.45,1.65,0.54v0.41h-7.34v-0.44c0.66-0.02,1.11-0.07,1.35-0.15c0.23-0.08,0.35-0.25,0.35-0.49
	c0-0.13-0.08-0.34-0.24-0.61c-0.15-0.27-0.39-0.59-0.71-0.95l-4.55-5l-0.81,0.69v4.34c0,0.89,0.13,1.46,0.4,1.7
	c0.27,0.23,0.86,0.39,1.77,0.47v0.44H48.2V90.93"/>
<path class="st2" d="M66.92,75.48h13.57l0.13,4.08h-0.58c-0.28-1.28-0.64-2.11-1.08-2.5c-0.43-0.39-1.34-0.59-2.73-0.59H74.9v12.29
	c0,0.93,0.15,1.51,0.44,1.74c0.29,0.22,0.92,0.36,1.9,0.44v0.43h-7v-0.43c1.02-0.08,1.65-0.25,1.9-0.51
	c0.25-0.26,0.38-0.91,0.38-1.94V76.48h-1.33c-1.33,0-2.24,0.19-2.72,0.58c-0.48,0.38-0.84,1.22-1.08,2.51h-0.59L66.92,75.48"/>
<path class="st3" d="M82.74,90.94c0.92-0.09,1.5-0.27,1.72-0.54c0.23-0.27,0.34-0.91,0.34-1.91v-10.4c0-0.85-0.13-1.4-0.39-1.65
	c-0.25-0.27-0.81-0.43-1.68-0.5v-0.45h6.65c1.38,0,2.54,0.17,3.46,0.53c1.75,0.67,2.63,1.89,2.63,3.67c0,1.2-0.39,2.11-1.17,2.76
	c-0.77,0.64-1.83,1.06-3.17,1.27l4.95,6.08c0.3,0.38,0.61,0.65,0.92,0.82c0.3,0.17,0.69,0.28,1.17,0.33v0.43H94.3l-5.72-7.39
	l-1.34,0.06v4.73c0,0.89,0.13,1.46,0.4,1.7c0.27,0.23,0.86,0.39,1.77,0.47v0.43h-6.67V90.94 M90.94,82.61
	c1.27-0.52,1.91-1.51,1.91-2.95c0-1.39-0.57-2.34-1.71-2.85c-0.61-0.27-1.42-0.41-2.43-0.41c-0.68,0-1.1,0.05-1.26,0.15
	c-0.15,0.09-0.22,0.32-0.22,0.68v5.92C88.97,83.09,90.2,82.91,90.94,82.61z"/>
<path class="st3" d="M102.96,77.26c1.48-1.42,3.3-2.12,5.46-2.12c2.17,0,3.99,0.71,5.46,2.14c1.6,1.54,2.41,3.59,2.41,6.16
	c0,2.6-0.83,4.67-2.49,6.21c-1.49,1.38-3.28,2.06-5.38,2.06c-2.25,0-4.12-0.76-5.61-2.29c-1.51-1.55-2.26-3.55-2.26-5.99
	C100.54,80.87,101.35,78.81,102.96,77.26 M104.75,89.04c0.99,1.2,2.21,1.81,3.66,1.81c1.41,0,2.62-0.59,3.62-1.76
	c1.01-1.18,1.51-3.06,1.51-5.65c0-2.62-0.51-4.51-1.52-5.68c-1.02-1.17-2.22-1.75-3.61-1.75c-1.44,0-2.66,0.61-3.66,1.82
	c-0.99,1.2-1.49,3.07-1.49,5.61C103.26,85.96,103.76,87.82,104.75,89.04z"/>
<path class="st2" d="M118.78,90.93c0.99-0.1,1.63-0.32,1.91-0.67c0.28-0.35,0.42-1.16,0.42-2.43v-9.76c0-0.87-0.14-1.43-0.41-1.69
	c-0.27-0.27-0.89-0.42-1.86-0.47v-0.45h4.75l5.56,12.12l5.31-12.12h4.79v0.45c-0.89,0.06-1.47,0.23-1.72,0.49
	c-0.26,0.26-0.39,0.81-0.39,1.67v10.68c0,0.87,0.13,1.44,0.39,1.69c0.26,0.24,0.83,0.4,1.72,0.48v0.44h-6.73v-0.44
	c0.97-0.08,1.57-0.25,1.81-0.51c0.24-0.27,0.36-0.92,0.36-1.94V77.69l-6.15,13.68h-0.33l-6.04-13.11v9.58
	c0,1.31,0.19,2.17,0.57,2.57c0.25,0.26,0.81,0.44,1.68,0.53v0.44h-5.64V90.93"/>
<path class="st2" d="M141.48,90.93c0.88-0.09,1.46-0.25,1.71-0.47c0.27-0.23,0.4-0.79,0.4-1.7V78.08c0-0.85-0.13-1.41-0.39-1.67
	c-0.26-0.27-0.83-0.43-1.72-0.49v-0.45h12.76l0.08,3.45h-0.61c-0.2-1.06-0.51-1.75-0.91-2.06c-0.41-0.31-1.31-0.47-2.72-0.47h-3.26
	c-0.35,0-0.57,0.06-0.66,0.17c-0.08,0.11-0.12,0.32-0.12,0.63v5.36h3.7c1.02,0,1.68-0.15,1.96-0.46c0.28-0.31,0.51-0.92,0.68-1.86
	h0.56v5.56h-0.56c-0.18-0.93-0.41-1.54-0.69-1.84c-0.28-0.3-0.93-0.46-1.95-0.46h-3.7v5.95c0,0.48,0.15,0.76,0.45,0.85
	c0.3,0.08,1.21,0.13,2.71,0.13c1.63,0,2.83-0.18,3.6-0.53c0.77-0.36,1.47-1.22,2.09-2.59h0.67l-1.09,4.06h-12.98V90.93"/>
<path class="st2" d="M157.66,90.93c0.98-0.08,1.58-0.25,1.82-0.51c0.23-0.27,0.35-0.92,0.35-1.94v-10.4c0-0.87-0.13-1.43-0.4-1.68
	c-0.26-0.26-0.85-0.42-1.77-0.48v-0.45h6.85v0.45c-0.94,0.05-1.54,0.21-1.82,0.47c-0.27,0.27-0.41,0.83-0.41,1.69v4.92
	c1.48-1.26,2.68-2.33,3.62-3.21c1.68-1.6,2.52-2.63,2.52-3.08c0-0.32-0.15-0.53-0.43-0.63c-0.28-0.1-0.68-0.15-1.21-0.15v-0.45h6.29
	v0.39c-0.77,0.08-1.37,0.23-1.82,0.46c-0.44,0.23-1.05,0.72-1.83,1.49l-4.56,4.47l5.59,6.04c1.04,1.12,1.75,1.82,2.12,2.1
	c0.38,0.27,0.93,0.45,1.65,0.54v0.41h-7.34v-0.44c0.66-0.02,1.11-0.07,1.35-0.15c0.23-0.08,0.35-0.25,0.35-0.49
	c0-0.13-0.08-0.34-0.24-0.61c-0.15-0.27-0.39-0.59-0.71-0.95l-4.55-5l-0.81,0.69v4.34c0,0.89,0.13,1.46,0.4,1.7
	c0.27,0.23,0.86,0.39,1.77,0.47v0.44h-6.79V90.93"/>
<path class="st3" d="M176.26,91.37v-0.44c0.62-0.07,1.08-0.3,1.38-0.7c0.31-0.4,0.84-1.48,1.6-3.25l5.01-11.78h0.47l5.98,13.62
	c0.4,0.91,0.71,1.47,0.95,1.69c0.24,0.21,0.65,0.35,1.21,0.43v0.44h-6.11v-0.44c0.7-0.06,1.16-0.13,1.36-0.22
	c0.2-0.09,0.3-0.32,0.3-0.67c0-0.12-0.04-0.33-0.12-0.62c-0.08-0.3-0.19-0.61-0.33-0.94l-1-2.31h-6.29c-0.63,1.57-1,2.53-1.13,2.89
	c-0.12,0.34-0.18,0.62-0.18,0.82c0,0.41,0.16,0.69,0.49,0.85c0.2,0.09,0.58,0.16,1.15,0.21v0.44H176.26 M186.63,85.2l-2.78-6.61
	l-2.74,6.61H186.63z"/>
<path class="st2" d="M194.87,90.93c0.99-0.1,1.63-0.32,1.91-0.67c0.28-0.35,0.42-1.16,0.42-2.43V77.25l-0.33-0.39
	c-0.35-0.41-0.65-0.67-0.9-0.76c-0.24-0.1-0.61-0.16-1.1-0.18v-0.45h4.12l9.25,11.57v-8.03c0-1.32-0.2-2.18-0.59-2.58
	c-0.26-0.26-0.83-0.42-1.71-0.51v-0.45h5.64v0.45c-0.91,0.1-1.52,0.32-1.83,0.67c-0.3,0.35-0.46,1.16-0.46,2.42v12.64h-0.41
	l-10.63-13.17v9.36c0,1.31,0.19,2.17,0.58,2.57c0.25,0.26,0.81,0.44,1.68,0.53v0.44h-5.64V90.93"/>
<path class="st3" d="M218.07,73.57c-0.23,0.24-0.51,0.35-0.84,0.35c-0.33,0-0.61-0.12-0.84-0.35c-0.23-0.23-0.35-0.51-0.35-0.84
	c0-0.33,0.12-0.61,0.35-0.84c0.23-0.24,0.52-0.35,0.84-0.35c0.33,0,0.62,0.12,0.84,0.35c0.23,0.23,0.35,0.51,0.35,0.84
	C218.42,73.05,218.3,73.33,218.07,73.57 M213.67,90.93c0.98-0.07,1.61-0.21,1.9-0.43c0.29-0.23,0.43-0.8,0.43-1.74V78.08
	c0-0.89-0.15-1.45-0.43-1.7c-0.29-0.26-0.92-0.41-1.9-0.46v-0.45h7.11v0.45c-0.98,0.05-1.61,0.2-1.9,0.46
	c-0.29,0.25-0.43,0.81-0.43,1.7v10.68c0,0.93,0.14,1.51,0.43,1.74c0.29,0.22,0.92,0.36,1.9,0.43v0.44h-7.11V90.93z"/>
<path class="st2" d="M223.06,90.93c0.98-0.08,1.58-0.25,1.82-0.51c0.23-0.27,0.35-0.92,0.35-1.94v-10.4c0-0.87-0.13-1.43-0.4-1.68
	c-0.26-0.26-0.85-0.42-1.77-0.48v-0.45h6.85v0.45c-0.94,0.05-1.54,0.21-1.82,0.47c-0.27,0.27-0.41,0.83-0.41,1.69v4.92
	c1.48-1.26,2.69-2.33,3.62-3.21c1.68-1.6,2.52-2.63,2.52-3.08c0-0.32-0.15-0.53-0.43-0.63c-0.28-0.1-0.69-0.15-1.21-0.15v-0.45h6.28
	v0.39c-0.76,0.08-1.37,0.23-1.82,0.46c-0.44,0.23-1.05,0.72-1.83,1.49l-4.56,4.47l5.59,6.04c1.04,1.12,1.75,1.82,2.12,2.1
	c0.38,0.27,0.93,0.45,1.65,0.54v0.41h-7.34v-0.44c0.66-0.02,1.11-0.07,1.35-0.15c0.23-0.08,0.35-0.25,0.35-0.49
	c0-0.13-0.08-0.34-0.24-0.61c-0.15-0.27-0.39-0.59-0.72-0.95l-4.55-5l-0.81,0.69v4.34c0,0.89,0.13,1.46,0.4,1.7
	c0.27,0.23,0.86,0.39,1.77,0.47v0.44h-6.79V90.93"/>
<path class="st3" d="M247.68,91.37v-0.44c0.62-0.07,1.08-0.3,1.38-0.7c0.31-0.4,0.84-1.48,1.6-3.25l5.01-11.78h0.47l5.98,13.62
	c0.4,0.91,0.72,1.47,0.95,1.69c0.24,0.21,0.64,0.35,1.21,0.43v0.44h-6.11v-0.44c0.7-0.06,1.16-0.13,1.36-0.22
	c0.2-0.09,0.3-0.32,0.3-0.67c0-0.12-0.04-0.33-0.12-0.62c-0.08-0.3-0.19-0.61-0.33-0.94l-1-2.31h-6.29c-0.63,1.57-1,2.53-1.13,2.89
	c-0.12,0.34-0.18,0.62-0.18,0.82c0,0.41,0.16,0.69,0.49,0.85c0.2,0.09,0.59,0.16,1.15,0.21v0.44H247.68 M258.05,85.2l-2.78-6.61
	l-2.75,6.61H258.05z"/>
<path class="st2" d="M268.98,91.26c-0.26-0.27-0.39-0.58-0.39-0.95c0-0.37,0.13-0.68,0.39-0.94c0.27-0.26,0.58-0.39,0.95-0.39
	s0.68,0.13,0.94,0.39c0.26,0.26,0.39,0.57,0.39,0.94c0,0.37-0.13,0.68-0.39,0.95c-0.25,0.26-0.56,0.39-0.94,0.39
	C269.56,91.65,269.24,91.52,268.98,91.26"/>
<path class="st2" d="M274.91,86.54c0.41,1.08,0.88,1.94,1.43,2.58c0.95,1.12,2.14,1.68,3.55,1.68c0.77,0,1.43-0.24,1.98-0.73
	c0.56-0.48,0.84-1.16,0.84-2.03c0-0.78-0.28-1.46-0.84-2.04c-0.37-0.37-1.14-0.92-2.32-1.65l-2.05-1.28
	c-0.62-0.39-1.11-0.79-1.48-1.18c-0.68-0.76-1.02-1.6-1.02-2.51c0-1.21,0.4-2.22,1.21-3.03c0.81-0.8,1.87-1.21,3.2-1.21
	c0.55,0,1.2,0.14,1.97,0.41c0.77,0.27,1.21,0.4,1.33,0.4c0.3,0,0.5-0.07,0.61-0.21c0.12-0.14,0.21-0.34,0.27-0.6h0.49l0.53,5.11
	h-0.58c-0.39-1.54-1.02-2.61-1.89-3.23c-0.86-0.61-1.71-0.91-2.55-0.91c-0.66,0-1.23,0.19-1.72,0.59c-0.49,0.38-0.73,0.92-0.73,1.6
	c0,0.62,0.19,1.15,0.56,1.6c0.38,0.44,0.96,0.9,1.75,1.38l2.11,1.3c1.32,0.81,2.25,1.57,2.78,2.25c0.54,0.68,0.81,1.49,0.81,2.43
	c0,1.26-0.48,2.31-1.43,3.16c-0.95,0.84-2.15,1.26-3.62,1.26l-0.49,1.28c0.15-0.03,0.27-0.05,0.37-0.07
	c0.11-0.01,0.23-0.02,0.35-0.02c0.6,0,1.07,0.16,1.43,0.47c0.36,0.31,0.54,0.72,0.54,1.21c0,0.57-0.25,1.05-0.74,1.44
	c-0.49,0.39-1.26,0.58-2.29,0.58c-0.19,0-0.42-0.02-0.68-0.06c-0.45-0.06-0.88-0.17-1.29-0.33l0.33-0.75l0.36,0.11
	c0.1,0.03,0.25,0.06,0.46,0.11c0.22,0.04,0.44,0.06,0.66,0.06c0.34,0,0.62-0.04,0.82-0.13c0.38-0.15,0.58-0.44,0.58-0.87
	c0-0.32-0.1-0.55-0.29-0.7c-0.2-0.15-0.45-0.22-0.75-0.22c-0.23,0-0.41,0.01-0.53,0.02c-0.11,0.02-0.24,0.06-0.39,0.1l-0.16-0.14
	l0.88-2.07c-0.16,0-0.65-0.12-1.48-0.38c-0.83-0.31-1.3-0.47-1.42-0.47c-0.28,0-0.47,0.09-0.58,0.26c-0.09,0.17-0.16,0.35-0.19,0.55
	h-0.53l-0.72-5.11H274.91"/>
<path class="st2" d="M291.03,91.26c-0.26-0.27-0.39-0.58-0.39-0.95c0-0.37,0.13-0.68,0.39-0.94c0.27-0.26,0.58-0.39,0.95-0.39
	c0.37,0,0.68,0.13,0.94,0.39c0.26,0.26,0.39,0.57,0.39,0.94c0,0.37-0.13,0.68-0.39,0.95c-0.25,0.26-0.56,0.39-0.94,0.39
	S291.29,91.52,291.03,91.26"/>
<polyline class="st2" points="242.27,45.61 270.11,0 323.53,90.18 302.13,90.18 262.89,23.99 249.83,45.61 242.27,45.61 "/>
<polyline class="st2" points="270.21,60.46 262.61,54.94 255.02,60.46 257.92,51.53 250.33,46.01 259.71,46.01 262.61,37.09 
	265.51,46.01 274.9,46.01 267.31,51.53 270.21,60.46 "/>
</svg>
