<svg width="164" height="73" viewBox="0 0 164 73" fill="none" xmlns="http://www.w3.org/2000/svg">
<g clip-path="url(#clip0)">
<path d="M45.9277 6.40192C45.8374 5.97372 45.657 5.57611 45.4163 5.23967L45.3261 5.05615L45.1155 5.17849L34.7681 10.8368L34.4673 10.9898C32.7528 11.9685 31.7602 13.9871 32.1211 16.0975C32.1512 16.2811 32.1813 16.434 32.2415 16.6175C30.6172 15.0882 28.662 13.926 26.0751 13.926C23.5484 13.926 21.6534 15.0271 20.0592 16.4952C19.9389 16.5869 19.8186 16.7093 19.6983 16.8316C19.7885 16.5869 19.8487 16.3728 19.8787 16.1281C20.2397 14.0483 19.2471 12.0297 17.5325 11.0203L17.2317 10.8674L6.85426 5.17849L6.67379 5.05615L6.58355 5.20908C6.34291 5.57611 6.16243 5.97372 6.07219 6.40192C5.7714 7.83944 6.43315 9.24638 7.63633 9.94985L7.78673 10.011C7.99729 10.1028 8.23793 10.1945 8.47856 10.2557C10.3435 10.9286 14.705 12.4273 15.1863 12.5802C15.6977 12.8249 16.1188 13.2225 16.3594 13.7425C15.6074 13.1613 14.1636 12.9472 13.2311 12.5802C11.7572 12.0603 8.77936 10.9898 8.77936 10.9898L8.50864 10.898L8.47856 11.0509C8.35824 12.3967 9.23055 13.6507 10.5841 13.926L10.7045 13.9566L16.5098 15.0271C16.5098 15.0882 16.5098 15.1188 16.4797 15.18C16.4497 15.3329 16.4196 15.4553 16.3594 15.5776L9.50127 14.3542V14.4765C9.65167 15.5776 10.4337 16.5563 11.5768 16.801L12.1483 16.9234L14.6148 17.3516C14.4644 17.5045 14.314 17.6574 14.1937 17.8103L11.1256 17.2292V17.3516C11.1556 18.8503 12.0881 20.196 13.5019 20.7466C13.562 21.1748 13.7124 21.603 13.923 21.97L14.3441 22.5817L14.3742 22.6429C13.6222 23.2852 13.0507 23.591 12.1784 23.591H12.1483L12.1784 23.6216H12.1483C12.1483 24.0498 12.4491 24.3862 12.8401 24.478H23.6988L24.0297 38.3027C23.6387 38.058 23.2477 37.8133 22.8566 37.5686C22.5859 37.4157 22.3453 37.2322 22.0745 37.0793C21.503 36.7122 20.9315 36.3452 20.3299 35.9782C13.1409 31.3598 20.9616 28.8212 20.5104 32.0021C20.5104 32.0632 20.5706 32.1244 20.6307 32.0938C21.5933 31.7268 23.7289 29.9222 21.8339 27.6895C20.6307 26.2825 17.0513 25.4873 14.4945 27.8424C14.0433 28.2706 13.6823 28.6988 13.4116 29.1576C11.4865 31.8797 12.4491 35.2441 15.1562 37.6604C15.2766 37.7521 15.3969 37.8745 15.5172 37.9662C17.2317 39.3426 19.7885 40.5966 22.2851 41.9424C16.3293 46.0408 16.5098 52.7085 22.7965 56.654C22.7062 56.7458 22.616 56.807 22.4957 56.8987C20.1194 58.3974 18.3447 61.1195 18.4048 62.9547C18.4951 65.1874 20.751 67.5119 23.8793 68.246C22.7664 67.8484 21.112 66.7779 20.8112 64.0252C20.5104 61.2419 23.7891 59.3456 24.5411 58.948L24.7817 68.5518C24.8118 69.2247 25.3532 69.7753 26.015 69.7753C26.6767 69.7753 27.2482 69.2247 27.2482 68.5518L27.4889 58.948C28.2409 59.3456 31.4895 61.2419 31.2187 64.0252C30.918 66.8085 29.2636 67.8484 28.1506 68.246C31.2789 67.5119 33.5349 65.1874 33.6251 62.9547C33.7154 61.0278 31.7602 58.1221 29.2034 56.6846C35.4901 52.7697 35.7307 46.1326 29.8952 42.0035C32.5422 40.6272 35.6404 39.0979 37.3249 37.5686C40.3629 34.8465 41.2052 30.8704 38.1371 28.0565C37.9265 27.873 37.7159 27.7201 37.5054 27.5671C35.0088 25.6097 31.7 26.4049 30.557 27.7507C28.9929 29.5858 30.196 31.1762 31.1887 31.8491C31.4895 32.0938 31.8504 32.3385 32.0911 32.3691C32.1211 32.3691 32.0911 32.1856 32.0911 32.1856V32.155C31.9407 30.7175 33.4747 30.5034 34.4974 31.1457C35.4901 31.9715 35.6104 33.7454 32.0309 36.0394C30.7976 36.8346 29.1433 37.8133 27.9701 38.578L28.301 24.478H39.2801C39.6711 24.3862 39.9719 24.0498 39.9719 23.6216C39.9719 23.6216 39.6711 23.6216 39.9719 23.6216C39.1297 23.6216 38.3777 23.224 37.6257 22.6123V22.5817L38.0468 21.97C38.2574 21.603 38.4078 21.1748 38.4679 20.7466C39.8516 20.196 40.7841 18.8503 40.8442 17.3516V17.2292L37.7761 17.8103C37.6558 17.6268 37.5054 17.4739 37.355 17.3516L39.8215 16.9234L40.393 16.801C41.5361 16.5563 42.3482 15.5776 42.4685 14.4765V14.3542L35.6104 15.5776C35.5502 15.4553 35.5201 15.3023 35.4901 15.18C35.4901 15.1188 35.4901 15.0882 35.46 15.0271L41.3255 13.9871L41.4458 13.9566C42.7693 13.6507 43.6416 12.3967 43.5514 11.0815L43.5213 10.9286L43.2506 11.0203C43.2506 11.0203 40.3028 12.0908 38.7988 12.6108C37.8663 12.9778 36.4225 13.1919 35.6705 13.773C35.9112 13.2837 36.3022 12.8555 36.8436 12.6108C37.2948 12.4579 41.6865 10.9592 43.5514 10.2863C43.792 10.2251 44.0327 10.1334 44.2432 10.0416L44.3936 9.98043C45.5667 9.24638 46.2285 7.83944 45.9277 6.40192ZM24.2102 45.7962L24.3907 53.6872C21.6234 51.9133 21.5331 47.6619 24.2102 45.7962ZM27.5791 53.6566L27.7596 45.7656C30.4367 47.6619 30.3464 51.9133 27.5791 53.6566Z" fill="#194F98"/>
</g>
<path d="M68.575 25H63.415V24.43C63.615 24.35 63.84 24.27 64.09 24.19C64.35 24.1 64.61 24.035 64.87 23.995V15.475H63.13L62.17 18.04H61.555C61.515 17.84 61.475 17.585 61.435 17.275C61.395 16.965 61.36 16.645 61.33 16.315C61.3 15.985 61.275 15.66 61.255 15.34C61.235 15.01 61.225 14.73 61.225 14.5H70.78C70.78 14.74 70.77 15.02 70.75 15.34C70.73 15.66 70.705 15.985 70.675 16.315C70.645 16.645 70.61 16.965 70.57 17.275C70.53 17.575 70.49 17.83 70.45 18.04H69.82L68.86 15.475H67.12V23.995C67.38 24.045 67.635 24.105 67.885 24.175C68.145 24.245 68.375 24.33 68.575 24.43V25ZM75.8049 25H71.3049V24.43C71.4549 24.35 71.6299 24.27 71.8299 24.19C72.0299 24.1 72.2649 24.035 72.5349 23.995V15.505C72.3349 15.465 72.1249 15.41 71.9049 15.34C71.6949 15.27 71.4949 15.18 71.3049 15.07V14.5H82.0749V15.07C81.8849 15.19 81.6849 15.285 81.4749 15.355C81.2649 15.415 81.0549 15.465 80.8449 15.505V23.995C81.2149 24.035 81.6249 24.18 82.0749 24.43V25H77.5749V24.43C77.6749 24.35 77.8049 24.275 77.9649 24.205C78.1249 24.125 78.3349 24.055 78.5949 23.995V15.475H74.7849V23.995C74.9849 24.045 75.1649 24.105 75.3249 24.175C75.4849 24.245 75.6449 24.33 75.8049 24.43V25ZM87.1721 25H82.6721V24.43C82.8221 24.35 82.9971 24.27 83.1971 24.19C83.3971 24.1 83.6321 24.035 83.9021 23.995V15.505C83.7021 15.465 83.4921 15.41 83.2721 15.34C83.0621 15.27 82.8621 15.18 82.6721 15.07V14.5H93.4421V15.07C93.2521 15.19 93.0521 15.285 92.8421 15.355C92.6321 15.415 92.4221 15.465 92.2121 15.505V23.995C92.5821 24.035 92.9921 24.18 93.4421 24.43V25H88.9421V24.43C89.0421 24.35 89.1721 24.275 89.3321 24.205C89.4921 24.125 89.7021 24.055 89.9621 23.995V15.475H86.1521V23.995C86.3521 24.045 86.5321 24.105 86.6921 24.175C86.8521 24.245 87.0121 24.33 87.1721 24.43V25ZM64.78 40.995C65.05 41.035 65.315 41.095 65.575 41.175C65.845 41.245 66.085 41.33 66.295 41.43V42H61.3V41.43C61.49 41.32 61.69 41.23 61.9 41.16C62.12 41.09 62.33 41.035 62.53 40.995V32.505C62.3 32.465 62.08 32.41 61.87 32.34C61.66 32.26 61.47 32.17 61.3 32.07V31.5H63.19C63.59 31.5 64.045 31.48 64.555 31.44C65.075 31.4 65.55 31.38 65.98 31.38C66.51 31.38 67.025 31.435 67.525 31.545C68.035 31.645 68.485 31.82 68.875 32.07C69.275 32.32 69.595 32.655 69.835 33.075C70.075 33.485 70.195 34 70.195 34.62C70.195 35.21 70.075 35.72 69.835 36.15C69.605 36.58 69.295 36.935 68.905 37.215C68.515 37.495 68.065 37.705 67.555 37.845C67.045 37.975 66.52 38.04 65.98 38.04C65.93 38.04 65.85 38.04 65.74 38.04C65.63 38.04 65.51 38.04 65.38 38.04C65.26 38.03 65.14 38.025 65.02 38.025C64.91 38.015 64.83 38.005 64.78 37.995V40.995ZM65.59 32.355C65.39 32.355 65.23 32.365 65.11 32.385C65 32.395 64.89 32.415 64.78 32.445V37.005C64.87 37.035 65.005 37.055 65.185 37.065C65.365 37.065 65.51 37.065 65.62 37.065C65.89 37.065 66.15 37.02 66.4 36.93C66.65 36.84 66.87 36.7 67.06 36.51C67.26 36.32 67.42 36.075 67.54 35.775C67.66 35.475 67.72 35.115 67.72 34.695C67.72 33.895 67.525 33.305 67.135 32.925C66.745 32.545 66.23 32.355 65.59 32.355ZM70.6056 38.25C70.6056 37.64 70.6956 37.095 70.8756 36.615C71.0656 36.125 71.3306 35.71 71.6706 35.37C72.0206 35.03 72.4406 34.77 72.9306 34.59C73.4206 34.41 73.9756 34.32 74.5956 34.32C75.2956 34.32 75.8956 34.42 76.3956 34.62C76.9056 34.81 77.3206 35.08 77.6406 35.43C77.9706 35.77 78.2106 36.185 78.3606 36.675C78.5106 37.155 78.5856 37.68 78.5856 38.25C78.5856 38.86 78.4956 39.41 78.3156 39.9C78.1356 40.38 77.8706 40.79 77.5206 41.13C77.1806 41.47 76.7606 41.73 76.2606 41.91C75.7706 42.09 75.2156 42.18 74.5956 42.18C73.9156 42.18 73.3256 42.085 72.8256 41.895C72.3256 41.695 71.9106 41.425 71.5806 41.085C71.2506 40.735 71.0056 40.32 70.8456 39.84C70.6856 39.35 70.6056 38.82 70.6056 38.25ZM72.9306 38.25C72.9306 38.7 72.9556 39.115 73.0056 39.495C73.0656 39.865 73.1656 40.18 73.3056 40.44C73.4456 40.7 73.6356 40.905 73.8756 41.055C74.1156 41.195 74.4256 41.265 74.8056 41.265C75.0256 41.265 75.2256 41.215 75.4056 41.115C75.5856 41.005 75.7406 40.835 75.8706 40.605C76.0006 40.365 76.0956 40.055 76.1556 39.675C76.2256 39.285 76.2606 38.81 76.2606 38.25C76.2606 37.79 76.2306 37.375 76.1706 37.005C76.1206 36.635 76.0256 36.32 75.8856 36.06C75.7556 35.8 75.5756 35.6 75.3456 35.46C75.1156 35.31 74.8256 35.235 74.4756 35.235C74.2156 35.235 73.9906 35.29 73.8006 35.4C73.6106 35.5 73.4506 35.67 73.3206 35.91C73.1906 36.14 73.0906 36.45 73.0206 36.84C72.9606 37.22 72.9306 37.69 72.9306 38.25ZM85.8869 40.785C85.8169 40.985 85.7019 41.17 85.5419 41.34C85.3819 41.5 85.1869 41.645 84.9569 41.775C84.7369 41.905 84.4819 42.005 84.1919 42.075C83.9119 42.145 83.6169 42.18 83.3069 42.18C82.6469 42.18 82.0769 42.09 81.5969 41.91C81.1269 41.72 80.7369 41.455 80.4269 41.115C80.1169 40.765 79.8869 40.35 79.7369 39.87C79.5869 39.38 79.5119 38.84 79.5119 38.25C79.5119 36.98 79.8569 36.01 80.5469 35.34C81.2469 34.66 82.2369 34.32 83.5169 34.32C84.0069 34.32 84.4569 34.375 84.8669 34.485C85.2769 34.585 85.6169 34.705 85.8869 34.845C85.8669 35.015 85.8369 35.205 85.7969 35.415C85.7669 35.615 85.7269 35.82 85.6769 36.03C85.6369 36.23 85.5869 36.43 85.5269 36.63C85.4669 36.82 85.4069 36.98 85.3469 37.11H84.6119L83.9819 35.325C83.9119 35.275 83.8369 35.24 83.7569 35.22C83.6769 35.19 83.5569 35.175 83.3969 35.175C83.1369 35.175 82.9119 35.225 82.7219 35.325C82.5319 35.415 82.3669 35.575 82.2269 35.805C82.0969 36.035 81.9969 36.34 81.9269 36.72C81.8669 37.1 81.8369 37.57 81.8369 38.13C81.8369 38.54 81.8819 38.92 81.9719 39.27C82.0619 39.61 82.1969 39.91 82.3769 40.17C82.5669 40.42 82.8019 40.62 83.0819 40.77C83.3619 40.91 83.6919 40.98 84.0719 40.98C84.4219 40.98 84.7269 40.93 84.9869 40.83C85.2469 40.73 85.4669 40.61 85.6469 40.47L85.8869 40.785ZM92.5514 42H88.2914V41.415C88.4414 41.335 88.6114 41.265 88.8014 41.205C88.9914 41.145 89.1714 41.095 89.3414 41.055V35.355H88.2464L87.5864 37.425H86.9564C86.9064 37.215 86.8564 36.98 86.8064 36.72C86.7664 36.46 86.7314 36.2 86.7014 35.94C86.6714 35.67 86.6414 35.41 86.6114 35.16C86.5914 34.91 86.5814 34.69 86.5814 34.5H94.2614C94.2614 34.68 94.2514 34.895 94.2314 35.145C94.2114 35.395 94.1814 35.655 94.1414 35.925C94.1114 36.185 94.0714 36.45 94.0214 36.72C93.9814 36.98 93.9364 37.215 93.8864 37.425H93.2564L92.5964 35.355H91.5014V41.055C91.7314 41.115 91.9264 41.17 92.0864 41.22C92.2464 41.27 92.4014 41.335 92.5514 41.415V42ZM94.8634 38.25C94.8634 37.64 94.9534 37.095 95.1334 36.615C95.3234 36.125 95.5884 35.71 95.9284 35.37C96.2784 35.03 96.6984 34.77 97.1884 34.59C97.6784 34.41 98.2334 34.32 98.8534 34.32C99.5534 34.32 100.153 34.42 100.653 34.62C101.163 34.81 101.578 35.08 101.898 35.43C102.228 35.77 102.468 36.185 102.618 36.675C102.768 37.155 102.843 37.68 102.843 38.25C102.843 38.86 102.753 39.41 102.573 39.9C102.393 40.38 102.128 40.79 101.778 41.13C101.438 41.47 101.018 41.73 100.518 41.91C100.028 42.09 99.4734 42.18 98.8534 42.18C98.1734 42.18 97.5834 42.085 97.0834 41.895C96.5834 41.695 96.1684 41.425 95.8384 41.085C95.5084 40.735 95.2634 40.32 95.1034 39.84C94.9434 39.35 94.8634 38.82 94.8634 38.25ZM97.1884 38.25C97.1884 38.7 97.2134 39.115 97.2634 39.495C97.3234 39.865 97.4234 40.18 97.5634 40.44C97.7034 40.7 97.8934 40.905 98.1334 41.055C98.3734 41.195 98.6834 41.265 99.0634 41.265C99.2834 41.265 99.4834 41.215 99.6634 41.115C99.8434 41.005 99.9984 40.835 100.128 40.605C100.258 40.365 100.353 40.055 100.413 39.675C100.483 39.285 100.518 38.81 100.518 38.25C100.518 37.79 100.488 37.375 100.428 37.005C100.378 36.635 100.283 36.32 100.143 36.06C100.013 35.8 99.8334 35.6 99.6034 35.46C99.3734 35.31 99.0834 35.235 98.7334 35.235C98.4734 35.235 98.2484 35.29 98.0584 35.4C97.8684 35.5 97.7084 35.67 97.5784 35.91C97.4484 36.14 97.3484 36.45 97.2784 36.84C97.2184 37.22 97.1884 37.69 97.1884 38.25ZM111.39 39.81C111.39 40.21 111.305 40.555 111.135 40.845C110.965 41.125 110.73 41.355 110.43 41.535C110.13 41.715 109.775 41.85 109.365 41.94C108.965 42.02 108.535 42.06 108.075 42.06C107.755 42.06 107.48 42.055 107.25 42.045C107.02 42.045 106.82 42.04 106.65 42.03C106.48 42.02 106.33 42.01 106.2 42C106.08 42 105.965 42 105.855 42H103.74V41.415C104.05 41.255 104.38 41.135 104.73 41.055V35.445C104.35 35.375 104.02 35.255 103.74 35.085V34.5H105.765C106.245 34.5 106.67 34.49 107.04 34.47C107.41 34.45 107.78 34.44 108.15 34.44C109.1 34.44 109.82 34.575 110.31 34.845C110.81 35.105 111.06 35.565 111.06 36.225C111.06 36.465 111.005 36.68 110.895 36.87C110.795 37.06 110.655 37.225 110.475 37.365C110.305 37.505 110.115 37.62 109.905 37.71C109.695 37.8 109.485 37.865 109.275 37.905C109.555 37.925 109.82 37.98 110.07 38.07C110.33 38.16 110.555 38.285 110.745 38.445C110.945 38.605 111.1 38.8 111.21 39.03C111.33 39.25 111.39 39.51 111.39 39.81ZM106.89 41.145C107.03 41.175 107.18 41.195 107.34 41.205C107.51 41.205 107.655 41.205 107.775 41.205C108.225 41.205 108.565 41.09 108.795 40.86C109.025 40.63 109.14 40.295 109.14 39.855C109.14 39.425 109.005 39.105 108.735 38.895C108.475 38.675 108.13 38.565 107.7 38.565H106.89V41.145ZM106.89 37.92L108.225 37.77C108.385 37.67 108.54 37.51 108.69 37.29C108.84 37.06 108.915 36.78 108.915 36.45C108.915 35.68 108.47 35.295 107.58 35.295C107.47 35.295 107.355 35.3 107.235 35.31C107.115 35.31 107 35.325 106.89 35.355V37.92ZM118.743 40.785C118.673 40.985 118.558 41.17 118.398 41.34C118.238 41.5 118.043 41.645 117.813 41.775C117.593 41.905 117.338 42.005 117.048 42.075C116.768 42.145 116.473 42.18 116.163 42.18C115.503 42.18 114.933 42.09 114.453 41.91C113.983 41.72 113.593 41.455 113.283 41.115C112.973 40.765 112.743 40.35 112.593 39.87C112.443 39.38 112.368 38.84 112.368 38.25C112.368 36.98 112.713 36.01 113.403 35.34C114.103 34.66 115.093 34.32 116.373 34.32C116.863 34.32 117.313 34.375 117.723 34.485C118.133 34.585 118.473 34.705 118.743 34.845C118.723 35.015 118.693 35.205 118.653 35.415C118.623 35.615 118.583 35.82 118.533 36.03C118.493 36.23 118.443 36.43 118.383 36.63C118.323 36.82 118.263 36.98 118.203 37.11H117.468L116.838 35.325C116.768 35.275 116.693 35.24 116.613 35.22C116.533 35.19 116.413 35.175 116.253 35.175C115.993 35.175 115.768 35.225 115.578 35.325C115.388 35.415 115.223 35.575 115.083 35.805C114.953 36.035 114.853 36.34 114.783 36.72C114.723 37.1 114.693 37.57 114.693 38.13C114.693 38.54 114.738 38.92 114.828 39.27C114.918 39.61 115.053 39.91 115.233 40.17C115.423 40.42 115.658 40.62 115.938 40.77C116.218 40.91 116.548 40.98 116.928 40.98C117.278 40.98 117.583 40.93 117.843 40.83C118.103 40.73 118.323 40.61 118.503 40.47L118.743 40.785ZM124.299 34.5H127.734V35.085C127.634 35.165 127.509 35.235 127.359 35.295C127.219 35.345 127.029 35.41 126.789 35.49C126.449 35.9 126.099 36.295 125.739 36.675C125.379 37.045 125.029 37.39 124.689 37.71C124.909 37.95 125.134 38.21 125.364 38.49C125.594 38.77 125.819 39.06 126.039 39.36C126.269 39.65 126.499 39.94 126.729 40.23C126.969 40.52 127.209 40.795 127.449 41.055L128.079 41.415V42H125.724L125.244 41.655C124.814 41.135 124.459 40.615 124.179 40.095C123.909 39.575 123.634 39.06 123.354 38.55H122.754V41.055C123.074 41.145 123.354 41.265 123.594 41.415V42H119.604V41.415C119.874 41.255 120.204 41.135 120.594 41.055V35.445C120.244 35.375 119.914 35.255 119.604 35.085V34.5H123.429V35.085C123.329 35.155 123.229 35.22 123.129 35.28C123.039 35.34 122.914 35.395 122.754 35.445V37.89L123.444 37.74C123.734 37.41 124.024 37.055 124.314 36.675C124.604 36.295 124.869 35.9 125.109 35.49C124.939 35.42 124.794 35.355 124.674 35.295C124.554 35.235 124.429 35.165 124.299 35.085V34.5ZM128.32 38.25C128.32 37.64 128.41 37.095 128.59 36.615C128.78 36.125 129.045 35.71 129.385 35.37C129.735 35.03 130.155 34.77 130.645 34.59C131.135 34.41 131.69 34.32 132.31 34.32C133.01 34.32 133.61 34.42 134.11 34.62C134.62 34.81 135.035 35.08 135.355 35.43C135.685 35.77 135.925 36.185 136.075 36.675C136.225 37.155 136.3 37.68 136.3 38.25C136.3 38.86 136.21 39.41 136.03 39.9C135.85 40.38 135.585 40.79 135.235 41.13C134.895 41.47 134.475 41.73 133.975 41.91C133.485 42.09 132.93 42.18 132.31 42.18C131.63 42.18 131.04 42.085 130.54 41.895C130.04 41.695 129.625 41.425 129.295 41.085C128.965 40.735 128.72 40.32 128.56 39.84C128.4 39.35 128.32 38.82 128.32 38.25ZM130.645 38.25C130.645 38.7 130.67 39.115 130.72 39.495C130.78 39.865 130.88 40.18 131.02 40.44C131.16 40.7 131.35 40.905 131.59 41.055C131.83 41.195 132.14 41.265 132.52 41.265C132.74 41.265 132.94 41.215 133.12 41.115C133.3 41.005 133.455 40.835 133.585 40.605C133.715 40.365 133.81 40.055 133.87 39.675C133.94 39.285 133.975 38.81 133.975 38.25C133.975 37.79 133.945 37.375 133.885 37.005C133.835 36.635 133.74 36.32 133.6 36.06C133.47 35.8 133.29 35.6 133.06 35.46C132.83 35.31 132.54 35.235 132.19 35.235C131.93 35.235 131.705 35.29 131.515 35.4C131.325 35.5 131.165 35.67 131.035 35.91C130.905 36.14 130.805 36.45 130.735 36.84C130.675 37.22 130.645 37.69 130.645 38.25ZM137.197 34.5H141.187V35.085C141.077 35.145 140.947 35.205 140.797 35.265C140.657 35.325 140.487 35.385 140.287 35.445V38.82L140.122 40.215H140.197L140.782 39.09L143.527 34.5H146.362V35.085C146.042 35.265 145.712 35.385 145.372 35.445V41.055C145.562 41.105 145.742 41.16 145.912 41.22C146.082 41.27 146.232 41.335 146.362 41.415V42H142.372V41.415C142.652 41.255 142.952 41.135 143.272 41.055V37.515L143.422 36.33H143.347L142.777 37.455L140.062 42H137.197V41.415C137.367 41.335 137.532 41.27 137.692 41.22C137.852 41.16 138.017 41.105 138.187 41.055V35.445C137.797 35.385 137.467 35.265 137.197 35.085V34.5ZM141.967 33.66C140.977 33.66 140.257 33.48 139.807 33.12C139.357 32.76 139.132 32.28 139.132 31.68C139.272 31.56 139.477 31.47 139.747 31.41C140.017 31.34 140.297 31.295 140.587 31.275L141.097 31.47V32.805C141.347 32.915 141.642 32.97 141.982 32.97C142.082 32.97 142.217 32.96 142.387 32.94C142.567 32.92 142.727 32.89 142.867 32.85V31.47L143.377 31.275C143.647 31.295 143.912 31.335 144.172 31.395C144.432 31.455 144.632 31.55 144.772 31.68C144.772 32.28 144.542 32.76 144.082 33.12C143.632 33.48 142.927 33.66 141.967 33.66ZM61.465 55.25C61.465 54.64 61.555 54.095 61.735 53.615C61.925 53.125 62.19 52.71 62.53 52.37C62.88 52.03 63.3 51.77 63.79 51.59C64.28 51.41 64.835 51.32 65.455 51.32C66.155 51.32 66.755 51.42 67.255 51.62C67.765 51.81 68.18 52.08 68.5 52.43C68.83 52.77 69.07 53.185 69.22 53.675C69.37 54.155 69.445 54.68 69.445 55.25C69.445 55.86 69.355 56.41 69.175 56.9C68.995 57.38 68.73 57.79 68.38 58.13C68.04 58.47 67.62 58.73 67.12 58.91C66.63 59.09 66.075 59.18 65.455 59.18C64.775 59.18 64.185 59.085 63.685 58.895C63.185 58.695 62.77 58.425 62.44 58.085C62.11 57.735 61.865 57.32 61.705 56.84C61.545 56.35 61.465 55.82 61.465 55.25ZM63.79 55.25C63.79 55.7 63.815 56.115 63.865 56.495C63.925 56.865 64.025 57.18 64.165 57.44C64.305 57.7 64.495 57.905 64.735 58.055C64.975 58.195 65.285 58.265 65.665 58.265C65.885 58.265 66.085 58.215 66.265 58.115C66.445 58.005 66.6 57.835 66.73 57.605C66.86 57.365 66.955 57.055 67.015 56.675C67.085 56.285 67.12 55.81 67.12 55.25C67.12 54.79 67.09 54.375 67.03 54.005C66.98 53.635 66.885 53.32 66.745 53.06C66.615 52.8 66.435 52.6 66.205 52.46C65.975 52.31 65.685 52.235 65.335 52.235C65.075 52.235 64.85 52.29 64.66 52.4C64.47 52.5 64.31 52.67 64.18 52.91C64.05 53.14 63.95 53.45 63.88 53.84C63.82 54.22 63.79 54.69 63.79 55.25ZM70.3713 54.935C70.3713 53.685 70.4863 52.64 70.7163 51.8C70.9563 50.95 71.3163 50.27 71.7963 49.76C72.2763 49.24 72.8763 48.87 73.5963 48.65C74.3263 48.43 75.1813 48.32 76.1613 48.32L77.1363 47.57H77.7213C77.7213 47.76 77.7063 47.98 77.6763 48.23C77.6563 48.47 77.6213 48.71 77.5713 48.95C77.5313 49.19 77.4863 49.41 77.4363 49.61C77.3863 49.81 77.3413 49.96 77.3013 50.06C76.2513 50.06 75.3613 50.095 74.6313 50.165C73.9113 50.235 73.3163 50.39 72.8463 50.63C72.3863 50.87 72.0363 51.22 71.7963 51.68C71.5563 52.13 71.3913 52.745 71.3013 53.525H71.3763C71.5263 53.265 71.7163 53.02 71.9463 52.79C72.1863 52.55 72.4513 52.345 72.7413 52.175C73.0413 51.995 73.3563 51.855 73.6863 51.755C74.0263 51.655 74.3763 51.605 74.7363 51.605C75.8263 51.605 76.6763 51.905 77.2863 52.505C77.8963 53.095 78.2013 54.025 78.2013 55.295C78.2013 55.855 78.1113 56.375 77.9313 56.855C77.7513 57.325 77.4863 57.735 77.1363 58.085C76.7963 58.425 76.3713 58.695 75.8613 58.895C75.3513 59.085 74.7713 59.18 74.1213 59.18C73.5513 59.18 73.0363 59.085 72.5763 58.895C72.1163 58.705 71.7213 58.43 71.3913 58.07C71.0613 57.71 70.8062 57.27 70.6263 56.75C70.4563 56.22 70.3713 55.615 70.3713 54.935ZM72.6963 55.07C72.6963 55.7 72.7313 56.225 72.8013 56.645C72.8813 57.055 72.9913 57.385 73.1313 57.635C73.2813 57.885 73.4563 58.065 73.6562 58.175C73.8663 58.275 74.1063 58.325 74.3763 58.325C74.8763 58.325 75.2463 58.095 75.4863 57.635C75.7363 57.165 75.8613 56.42 75.8613 55.4C75.8613 54.39 75.7063 53.68 75.3963 53.27C75.0863 52.86 74.6563 52.655 74.1063 52.655C73.8663 52.655 73.6313 52.72 73.4013 52.85C73.1813 52.98 73.0013 53.13 72.8613 53.3C72.7513 53.77 72.6963 54.36 72.6963 55.07ZM80.1288 57.305C80.3788 56.835 80.5638 56.18 80.6838 55.34C80.8038 54.49 80.8688 53.575 80.8788 52.595C80.6788 52.535 80.4838 52.46 80.2938 52.37C80.1138 52.28 79.9538 52.185 79.8138 52.085V51.5H86.7588V52.085C86.4388 52.265 86.1088 52.385 85.7688 52.445V58.055C85.9788 58.105 86.1638 58.16 86.3238 58.22C86.4838 58.28 86.6288 58.345 86.7588 58.415V59H82.7838V58.415C82.9038 58.335 83.0238 58.265 83.1438 58.205C83.2738 58.145 83.4288 58.095 83.6088 58.055V52.355H81.9588C81.9488 52.885 81.9188 53.44 81.8688 54.02C81.8188 54.59 81.7388 55.15 81.6288 55.7C81.5288 56.25 81.3938 56.77 81.2238 57.26C81.0538 57.74 80.8488 58.15 80.6088 58.49C80.4088 58.77 80.1888 58.97 79.9488 59.09C79.7088 59.21 79.4938 59.25 79.3038 59.21C79.1738 59.14 79.0538 59.03 78.9438 58.88C78.8338 58.72 78.7388 58.555 78.6588 58.385C78.5788 58.215 78.5138 58.045 78.4638 57.875C78.4138 57.705 78.3838 57.56 78.3738 57.44L78.7188 56.93L80.1288 57.305ZM94.2414 56.825C94.2414 57.045 94.2414 57.235 94.2414 57.395C94.2514 57.555 94.2664 57.725 94.2864 57.905L95.3214 58.055V58.58C95.2014 58.64 95.0364 58.7 94.8264 58.76C94.6264 58.82 94.4114 58.88 94.1814 58.94C93.9614 58.99 93.7414 59.03 93.5214 59.06C93.3014 59.1 93.1064 59.13 92.9364 59.15H92.4264C92.3264 58.92 92.2664 58.69 92.2464 58.46C92.2264 58.23 92.2114 57.95 92.2014 57.62H92.1264C92.0764 57.82 91.9914 58.015 91.8714 58.205C91.7514 58.385 91.5964 58.55 91.4064 58.7C91.2264 58.84 91.0114 58.955 90.7614 59.045C90.5114 59.135 90.2314 59.18 89.9214 59.18C89.5914 59.18 89.2864 59.13 89.0064 59.03C88.7264 58.93 88.4814 58.79 88.2714 58.61C88.0614 58.43 87.8964 58.215 87.7764 57.965C87.6564 57.705 87.5964 57.415 87.5964 57.095C87.5964 56.645 87.6814 56.275 87.8514 55.985C88.0214 55.695 88.2864 55.46 88.6464 55.28C89.0164 55.09 89.4864 54.95 90.0564 54.86C90.6364 54.77 91.3364 54.705 92.1564 54.665C92.2364 53.805 92.2014 53.175 92.0514 52.775C91.9014 52.375 91.5764 52.175 91.0764 52.175C90.7664 52.175 90.4814 52.225 90.2214 52.325L89.5164 54.125H88.8564C88.7764 54.005 88.6964 53.87 88.6164 53.72C88.5464 53.56 88.4764 53.395 88.4064 53.225C88.3464 53.045 88.2914 52.865 88.2414 52.685C88.2014 52.505 88.1714 52.33 88.1514 52.16C88.5314 51.9 89.0214 51.695 89.6214 51.545C90.2214 51.395 90.8564 51.32 91.5264 51.32C92.0964 51.32 92.5614 51.385 92.9214 51.515C93.2814 51.635 93.5614 51.805 93.7614 52.025C93.9714 52.235 94.1164 52.485 94.1964 52.775C94.2764 53.065 94.3164 53.375 94.3164 53.705C94.3164 54.305 94.3014 54.85 94.2714 55.34C94.2514 55.82 94.2414 56.315 94.2414 56.825ZM90.8664 57.98C91.0764 57.98 91.2564 57.94 91.4064 57.86C91.5564 57.78 91.6814 57.685 91.7814 57.575C91.8914 57.465 91.9714 57.345 92.0214 57.215C92.0814 57.085 92.1264 56.97 92.1564 56.87V55.37C91.6864 55.38 91.3014 55.41 91.0014 55.46C90.7014 55.51 90.4664 55.595 90.2964 55.715C90.1264 55.825 90.0064 55.97 89.9364 56.15C89.8764 56.32 89.8464 56.53 89.8464 56.78C89.8464 57.16 89.9364 57.455 90.1164 57.665C90.2964 57.875 90.5464 57.98 90.8664 57.98ZM102.381 57.785C102.311 57.985 102.196 58.17 102.036 58.34C101.876 58.5 101.681 58.645 101.451 58.775C101.231 58.905 100.976 59.005 100.686 59.075C100.406 59.145 100.111 59.18 99.801 59.18C99.141 59.18 98.571 59.09 98.091 58.91C97.621 58.72 97.231 58.455 96.921 58.115C96.611 57.765 96.381 57.35 96.231 56.87C96.081 56.38 96.006 55.84 96.006 55.25C96.006 53.98 96.351 53.01 97.041 52.34C97.741 51.66 98.731 51.32 100.011 51.32C100.501 51.32 100.951 51.375 101.361 51.485C101.771 51.585 102.111 51.705 102.381 51.845C102.361 52.015 102.331 52.205 102.291 52.415C102.261 52.615 102.221 52.82 102.171 53.03C102.131 53.23 102.081 53.43 102.021 53.63C101.961 53.82 101.901 53.98 101.841 54.11H101.106L100.476 52.325C100.406 52.275 100.331 52.24 100.251 52.22C100.171 52.19 100.051 52.175 99.891 52.175C99.631 52.175 99.406 52.225 99.216 52.325C99.026 52.415 98.861 52.575 98.721 52.805C98.591 53.035 98.491 53.34 98.421 53.72C98.361 54.1 98.331 54.57 98.331 55.13C98.331 55.54 98.376 55.92 98.466 56.27C98.556 56.61 98.691 56.91 98.871 57.17C99.061 57.42 99.296 57.62 99.576 57.77C99.856 57.91 100.186 57.98 100.566 57.98C100.916 57.98 101.221 57.93 101.481 57.83C101.741 57.73 101.961 57.61 102.141 57.47L102.381 57.785ZM109.046 59H104.786V58.415C104.936 58.335 105.106 58.265 105.296 58.205C105.486 58.145 105.666 58.095 105.836 58.055V52.355H104.741L104.081 54.425H103.451C103.401 54.215 103.351 53.98 103.301 53.72C103.261 53.46 103.226 53.2 103.196 52.94C103.166 52.67 103.136 52.41 103.106 52.16C103.086 51.91 103.076 51.69 103.076 51.5H110.756C110.756 51.68 110.746 51.895 110.726 52.145C110.706 52.395 110.676 52.655 110.636 52.925C110.606 53.185 110.566 53.45 110.516 53.72C110.476 53.98 110.431 54.215 110.381 54.425H109.751L109.091 52.355H107.996V58.055C108.226 58.115 108.421 58.17 108.581 58.22C108.741 58.27 108.896 58.335 109.046 58.415V59ZM111.415 51.5H115.405V52.085C115.295 52.145 115.165 52.205 115.015 52.265C114.875 52.325 114.705 52.385 114.505 52.445V55.82L114.34 57.215H114.415L115 56.09L117.745 51.5H120.58V52.085C120.26 52.265 119.93 52.385 119.59 52.445V58.055C119.78 58.105 119.96 58.16 120.13 58.22C120.3 58.27 120.45 58.335 120.58 58.415V59H116.59V58.415C116.87 58.255 117.17 58.135 117.49 58.055V54.515L117.64 53.33H117.565L116.995 54.455L114.28 59H111.415V58.415C111.585 58.335 111.75 58.27 111.91 58.22C112.07 58.16 112.235 58.105 112.405 58.055V52.445C112.015 52.385 111.685 52.265 111.415 52.085V51.5Z" fill="#194F98"/>
<defs>
<clipPath id="clip0">
<rect width="50" height="72.809" fill="white"/>
</clipPath>
</defs>
</svg>
